<svg width="63" height="57" viewBox="0 0 63 57" fill="none" xmlns="http://www.w3.org/2000/svg">
<path d="M34.72 10.48C34.72 16.4 30.88 21.3333 23.2 25.28L24.08 26.72C25.52 29.12 28.08 32.9333 31.76 38.16L32.64 39.28L33.12 37.92L36.24 29.68C39.9733 19.8667 45.28 14.96 52.16 14.96C55.36 14.96 57.9467 15.8933 59.92 17.76C61.8933 19.5733 62.88 21.9733 62.88 24.96C62.88 27.7867 61.9467 30.1867 60.08 32.16C58.2133 34.08 55.8933 35.04 53.12 35.04C51.0933 35.04 49.44 34.5333 48.16 33.52C46.88 32.5067 46.24 31.1733 46.24 29.52C46.24 26.96 47.36 25.68 49.6 25.68C51.52 25.68 52.48 26.56 52.48 28.32C52.48 28.5333 52.3467 28.96 52.08 29.6C52.8267 29.7067 53.2533 29.76 53.36 29.76C54.3733 29.76 55.2533 29.3333 56 28.48C56.7467 27.6267 57.12 26.5867 57.12 25.36C57.12 23.8133 56.6133 22.5867 55.6 21.68C54.64 20.72 53.3067 20.24 51.6 20.24C48.8267 20.24 46.56 21.76 44.8 24.8C43.36 27.2533 41.6 31.3333 39.52 37.04C38.4 40.1333 37.36 42.5333 36.4 44.24C38.6933 46.8 40.6133 48.5067 42.16 49.36C43.7067 50.2133 45.6533 50.64 48 50.64C48.48 50.64 49.1733 50.5867 50.08 50.48C51.04 50.3733 51.76 50.32 52.24 50.32C54.4267 50.32 55.52 51.3067 55.52 53.28C55.52 55.1467 54.4 56.08 52.16 56.08C52.1067 56.08 51.68 56.08 50.88 56.08C50.1333 56.0267 49.3867 56 48.64 56H44.4C40.72 56 36.8 53.84 32.64 49.52C31.2 51.1733 29.9733 52.3467 28.96 53.04C25.6533 55.3333 21.84 56.48 17.52 56.48C12.6667 56.48 8.69333 55.0133 5.6 52.08C2.50667 49.1467 0.96 45.36 0.96 40.72C0.96 34.48 3.57333 29.7067 8.8 26.4C10.56 25.28 12.1867 24.3467 13.68 23.6L14.64 23.12C11.8133 18 10.4 13.8933 10.4 10.8C10.4 7.6 11.4933 5.01333 13.68 3.04C15.92 1.06666 18.8533 0.0799952 22.48 0.0799952C26.2667 0.0799952 29.2533 1.01333 31.44 2.88C33.6267 4.74667 34.72 7.28 34.72 10.48ZM16.96 10.48C16.96 12.5067 18.1333 15.84 20.48 20.48C25.6533 18.0267 28.24 14.88 28.24 11.04C28.24 9.33333 27.7067 7.97333 26.64 6.96C25.6267 5.89333 24.24 5.36 22.48 5.36C20.8267 5.36 19.4933 5.84 18.48 6.8C17.4667 7.70666 16.96 8.93333 16.96 10.48ZM20.56 33.6C19.28 31.6267 18.1333 29.76 17.12 28C15.0933 28.96 13.44 30 12.16 31.12C9.22667 33.6267 7.76 36.8 7.76 40.64C7.76 43.6267 8.69333 46.0533 10.56 47.92C12.48 49.7333 14.96 50.64 18 50.64C22.5333 50.64 26.1867 48.8 28.96 45.12C25.3867 40.5333 22.5867 36.6933 20.56 33.6Z" fill="#FEAD5F"/>
</svg>
