<svg width="100" height="100" viewBox="0 0 100 100" fill="none" xmlns="http://www.w3.org/2000/svg">
<rect x="26.6973" y="27.0923" width="46.0696" height="46.0696" rx="23.0348" stroke="#61656C"/>
<path d="M51.5825 18.7855C51.9851 16.2447 54.3712 14.5114 56.912 14.914V14.914C59.4528 15.3167 61.1861 17.7028 60.7835 20.2436L60.2974 23.3106C60.1632 24.1575 59.3679 24.7353 58.5209 24.6011L52.3869 23.629C51.54 23.4948 50.9622 22.6994 51.0964 21.8525L51.5825 18.7855Z" stroke="#413E60"/>
<path fill-rule="evenodd" clip-rule="evenodd" d="M48.8218 18.348C49.466 14.2827 53.2838 11.5094 57.3491 12.1537C61.4144 12.7979 64.1877 16.6158 63.5434 20.681C63.4629 21.1892 62.9857 21.5358 62.4775 21.4553C61.9694 21.3748 61.6227 20.8976 61.7032 20.3894C62.1864 17.3404 60.1064 14.4771 57.0575 13.9939C54.0085 13.5107 51.1452 15.5907 50.662 18.6396C50.5815 19.1478 50.1042 19.4945 49.5961 19.4139C49.0879 19.3334 48.7412 18.8562 48.8218 18.348Z" stroke="#413E60" stroke-linecap="round"/>
<path d="M69.135 25.181C70.9691 23.3773 73.9183 23.4019 75.722 25.2361V25.2361C77.5258 27.0703 77.5011 30.0195 75.6669 31.8232L73.4529 34.0005C72.8415 34.6018 71.8584 34.5936 71.2572 33.9822L66.9025 29.554C66.3013 28.9426 66.3095 27.9596 66.9209 27.3583L69.135 25.181Z" stroke="#413E60"/>
<path fill-rule="evenodd" clip-rule="evenodd" d="M67.1745 23.1884C70.1092 20.3024 74.8278 20.3419 77.7139 23.2766C80.5999 26.2113 80.5604 30.9299 77.6257 33.8159C77.2588 34.1767 76.669 34.1717 76.3083 33.8049C75.9475 33.438 75.9524 32.8482 76.3193 32.4875C78.5203 30.323 78.5499 26.784 76.3854 24.583C74.2209 22.3819 70.6819 22.3523 68.4809 24.5168C68.1141 24.8776 67.5243 24.8727 67.1635 24.5058C66.8028 24.139 66.8077 23.5492 67.1745 23.1884Z" stroke="#413E60" stroke-linecap="round"/>
<path d="M69.8051 74.7688C71.2622 76.8888 70.7247 79.7887 68.6046 81.2458V81.2458C66.4846 82.7029 63.5847 82.1654 62.1276 80.0454L60.3688 77.4862C59.8831 76.7795 60.0622 75.8129 60.7689 75.3272L65.8872 71.8095C66.5939 71.3238 67.5605 71.5029 68.0462 72.2096L69.8051 74.7688Z" stroke="#413E60"/>
<path fill-rule="evenodd" clip-rule="evenodd" d="M72.1078 73.1859C74.4392 76.578 73.5793 81.2177 70.1872 83.5491C66.7951 85.8804 62.1553 85.0205 59.824 81.6284C59.5325 81.2044 59.64 80.6245 60.064 80.333C60.488 80.0416 61.068 80.1491 61.3594 80.5731C63.1079 83.1172 66.5878 83.7621 69.1318 82.0136C71.6759 80.2651 72.3209 76.7853 70.5723 74.2412C70.2809 73.8172 70.3884 73.2372 70.8124 72.9458C71.2364 72.6544 71.8164 72.7619 72.1078 73.1859Z" stroke="#413E60" stroke-linecap="round"/>
<path d="M80.0259 39.6479C82.5584 39.1956 84.9779 40.882 85.4302 43.4144V43.4144C85.8824 45.9469 84.196 48.3664 81.6636 48.8187L78.6067 49.3646C77.7625 49.5153 76.956 48.9532 76.8053 48.109L75.7135 41.9952C75.5627 41.151 76.1249 40.3445 76.969 40.1938L80.0259 39.6479Z" stroke="#413E60"/>
<path fill-rule="evenodd" clip-rule="evenodd" d="M79.5354 36.8967C83.5873 36.1732 87.4586 38.8713 88.1822 42.9232C88.9058 46.9751 86.2076 50.8464 82.1557 51.57C81.6492 51.6604 81.1653 51.3232 81.0749 50.8167C80.9844 50.3102 81.3217 49.8263 81.8282 49.7358C84.8671 49.1932 86.8907 46.2897 86.348 43.2508C85.8054 40.2118 82.9019 38.1882 79.863 38.7309C79.3565 38.8213 78.8726 38.4841 78.7821 37.9776C78.6917 37.4711 79.029 36.9872 79.5354 36.8967Z" stroke="#413E60" stroke-linecap="round"/>
<path d="M80.2043 58.5343C82.5417 59.6088 83.5655 62.3746 82.491 64.712V64.712C81.4166 67.0494 78.6507 68.0732 76.3134 66.9987L73.4919 65.7017C72.7128 65.3436 72.3715 64.4216 72.7297 63.6425L75.3237 57.9996C75.6818 57.2204 76.6038 56.8792 77.3829 57.2373L80.2043 58.5343Z" stroke="#413E60"/>
<path fill-rule="evenodd" clip-rule="evenodd" d="M81.3721 55.9951C85.1118 57.7142 86.7499 62.1396 85.0308 65.8794C83.3117 69.6191 78.8863 71.2572 75.1465 69.5381C74.679 69.3232 74.4743 68.77 74.6892 68.3026C74.9041 67.8351 75.4572 67.6303 75.9247 67.8452C78.7296 69.1346 82.0486 67.906 83.3379 65.1012C84.6273 62.2963 83.3987 58.9773 80.5939 57.688C80.1264 57.4731 79.9216 56.9199 80.1365 56.4524C80.3514 55.9849 80.9046 55.7802 81.3721 55.9951Z" stroke="#413E60" stroke-linecap="round"/>
<path d="M42.4963 18.7151C41.6268 16.294 38.9592 15.0363 36.5381 15.9058V15.9058C34.117 16.7754 32.8593 19.443 33.7288 21.8641L34.7785 24.7866C35.0683 25.5936 35.9575 26.0129 36.7645 25.723L42.6096 23.6237C43.4166 23.3339 43.8358 22.4447 43.546 21.6376L42.4963 18.7151Z" stroke="#413E60"/>
<path fill-rule="evenodd" clip-rule="evenodd" d="M45.1275 17.7705C43.7363 13.8968 39.4681 11.8844 35.5944 13.2757C31.7206 14.667 29.7082 18.9351 31.0995 22.8089C31.2734 23.2931 31.8069 23.5446 32.2912 23.3707C32.7754 23.1968 33.0269 22.6633 32.853 22.1791C31.8096 19.2738 33.3189 16.0727 36.2242 15.0292C39.1295 13.9857 42.3306 15.495 43.374 18.4003C43.548 18.8846 44.0815 19.1361 44.5657 18.9622C45.0499 18.7883 45.3015 18.2548 45.1275 17.7705Z" stroke="#413E60" stroke-linecap="round"/>
<path d="M23.7805 68.2804C22.0723 70.2038 22.2468 73.1479 24.1703 74.8561V74.8561C26.0937 76.5644 29.0378 76.3899 30.746 74.4664L32.808 72.1445C33.3774 71.5034 33.3193 70.522 32.6781 69.9526L28.0344 65.8286C27.3933 65.2592 26.4119 65.3174 25.8425 65.9585L23.7805 68.2804Z" stroke="#413E60"/>
<path fill-rule="evenodd" clip-rule="evenodd" d="M21.691 66.4246C18.9578 69.5022 19.237 74.2127 22.3146 76.9458C25.3922 79.679 30.1027 79.3998 32.8358 76.3222C33.1775 75.9375 33.1426 75.3487 32.7579 75.0071C32.3732 74.6654 31.7844 74.7003 31.4427 75.085C29.3929 77.3932 25.86 77.6026 23.5518 75.5527C21.2436 73.5029 21.0342 69.97 23.0841 67.6618C23.4258 67.2771 23.3909 66.6883 23.0062 66.3466C22.6215 66.005 22.0326 66.0399 21.691 66.4246Z" stroke="#413E60" stroke-linecap="round"/>
<path d="M24.9792 29.2087C22.7513 27.9225 19.9026 28.6858 18.6163 30.9136V30.9136C17.3301 33.1415 18.0934 35.9902 20.3213 37.2765L23.0105 38.8291C23.7531 39.2579 24.7027 39.0035 25.1315 38.2608L28.2368 32.8823C28.6655 32.1397 28.4111 31.1901 27.6685 30.7614L24.9792 29.2087Z" stroke="#413E60"/>
<path fill-rule="evenodd" clip-rule="evenodd" d="M26.3761 26.7885C22.8115 24.7305 18.2535 25.9518 16.1955 29.5164C14.1375 33.0809 15.3588 37.6389 18.9234 39.6969C19.369 39.9542 19.9387 39.8015 20.196 39.3559C20.4532 38.9104 20.3006 38.3406 19.855 38.0834C17.1816 36.5399 16.2656 33.1214 17.8091 30.4479C19.3526 27.7745 22.7711 26.8585 25.4445 28.402C25.8901 28.6593 26.4598 28.5066 26.7171 28.061C26.9743 27.6155 26.8217 27.0457 26.3761 26.7885Z" stroke="#413E60" stroke-linecap="round"/>
<path d="M18.2695 48.0342C15.7206 48.3819 13.9361 50.73 14.2838 53.2789V53.2789C14.6314 55.8278 16.9796 57.6123 19.5285 57.2646L22.6053 56.845C23.4549 56.7291 24.0497 55.9464 23.9338 55.0967L23.0945 48.9431C22.9786 48.0935 22.1959 47.4987 21.3463 47.6146L18.2695 48.0342Z" stroke="#413E60"/>
<path fill-rule="evenodd" clip-rule="evenodd" d="M17.8921 45.2651C13.8139 45.8214 10.9587 49.5784 11.515 53.6566C12.0712 57.7348 15.8282 60.59 19.9065 60.0337C20.4162 59.9642 20.7731 59.4946 20.7036 58.9848C20.6341 58.475 20.1645 58.1181 19.6547 58.1877C16.596 58.6049 13.7782 56.4635 13.3611 53.4048C12.9439 50.3461 15.0852 47.5284 18.1439 47.1112C18.6537 47.0417 19.0106 46.572 18.9411 46.0623C18.8715 45.5525 18.4019 45.1956 17.8921 45.2651Z" stroke="#413E60" stroke-linecap="round"/>
<path d="M50.0116 81.5368C49.7393 84.0949 47.4448 85.9478 44.8868 85.6755V85.6755C42.3287 85.4032 40.4758 83.1088 40.7481 80.5507L41.0768 77.4629C41.1675 76.6102 41.9324 75.9925 42.785 76.0833L48.9607 76.7407C49.8134 76.8315 50.4311 77.5963 50.3403 78.449L50.0116 81.5368Z" stroke="#413E60"/>
<path fill-rule="evenodd" clip-rule="evenodd" d="M52.7908 81.8327C52.3551 85.9255 48.684 88.8903 44.5911 88.4546C40.4983 88.0189 37.5335 84.3478 37.9692 80.2549C38.0237 79.7433 38.4825 79.3727 38.9942 79.4272C39.5058 79.4816 39.8764 79.9405 39.8219 80.4521C39.4951 83.5218 41.7187 86.2751 44.7884 86.6019C47.858 86.9287 50.6114 84.7051 50.9381 81.6354C50.9926 81.1238 51.4515 80.7532 51.9631 80.8077C52.4747 80.8621 52.8453 81.321 52.7908 81.8327Z" stroke="#413E60" stroke-linecap="round"/>
</svg>
