<svg width="12" height="12" viewBox="0 0 12 12" fill="none" xmlns="http://www.w3.org/2000/svg">
<path fill-rule="evenodd" clip-rule="evenodd" d="M10.8355 2.20706C11.1865 1.85606 11.194 1.29451 10.8523 0.952801C10.5106 0.611095 9.94907 0.618629 9.59807 0.969629L5.90251 4.66518L2.20687 0.969551C1.85587 0.618551 1.29431 0.61102 0.952603 0.952731C0.610891 1.29444 0.618423 1.85599 0.969422 2.20699L4.66506 5.90263L0.969655 9.59803C0.618655 9.94903 0.61112 10.5106 0.952826 10.8523C1.29453 11.194 1.85608 11.1865 2.20708 10.8355L5.90249 7.14006L9.59784 10.8354C9.94884 11.1864 10.5104 11.1939 10.8521 10.8522C11.1938 10.5105 11.1863 9.94895 10.8353 9.59795L7.13994 5.90261L10.8355 2.20706Z" fill="#61656C"/>
</svg>
