<svg width="100" height="100" viewBox="0 0 100 100" fill="none" xmlns="http://www.w3.org/2000/svg">
<rect x="22.5049" y="35.9436" width="53.9145" height="27.2418" rx="13.6209" stroke="#61656C"/>
<path d="M45.9814 27.0348C45.9814 24.4623 48.0669 22.3769 50.6394 22.3769V22.3769C53.2119 22.3769 55.2973 24.4623 55.2973 27.0348V30.1401C55.2973 30.9976 54.6022 31.6928 53.7447 31.6928H47.5341C46.6766 31.6928 45.9814 30.9976 45.9814 30.1401V27.0348Z" stroke="#413E60"/>
<path fill-rule="evenodd" clip-rule="evenodd" d="M43.1865 27.0348C43.1865 22.9188 46.5232 19.5821 50.6392 19.5821C54.7552 19.5821 58.0919 22.9188 58.0919 27.0348C58.0919 27.5493 57.6748 27.9664 57.1603 27.9664C56.6458 27.9664 56.2287 27.5493 56.2287 27.0348C56.2287 23.9478 53.7262 21.4453 50.6392 21.4453C47.5522 21.4453 45.0497 23.9478 45.0497 27.0348C45.0497 27.5493 44.6326 27.9664 44.1181 27.9664C43.6036 27.9664 43.1865 27.5493 43.1865 27.0348Z" stroke="#413E60" stroke-linecap="round"/>
<path d="M64.285 27.6614C64.908 25.1655 67.4364 23.6472 69.9324 24.2702V24.2702C72.4283 24.8932 73.9466 27.4216 73.3236 29.9175L72.5716 32.9303C72.3639 33.7623 71.5211 34.2684 70.6891 34.0608L64.6634 32.5567C63.8315 32.349 63.3254 31.5063 63.533 30.6743L64.285 27.6614Z" stroke="#413E60"/>
<path fill-rule="evenodd" clip-rule="evenodd" d="M61.5731 26.9846C62.5699 22.9911 66.6153 20.5618 70.6088 21.5586C74.6023 22.5554 77.0315 26.6008 76.0348 30.5943C75.9102 31.0935 75.4045 31.3971 74.9053 31.2725C74.4061 31.1479 74.1024 30.6422 74.227 30.1431C74.9746 27.148 73.1527 24.1139 70.1576 23.3663C67.1624 22.6187 64.1284 24.4407 63.3808 27.4358C63.2562 27.935 62.7505 28.2386 62.2513 28.114C61.7521 27.9894 61.4485 27.4837 61.5731 26.9846Z" stroke="#413E60" stroke-linecap="round"/>
<path d="M72.9575 70.0847C73.6233 72.5696 72.1487 75.1237 69.6639 75.7895V75.7895C67.179 76.4553 64.6249 74.9807 63.9591 72.4958L63.1554 69.4964C62.9334 68.6681 63.425 67.8167 64.2533 67.5948L70.2522 65.9873C71.0805 65.7654 71.9319 66.2569 72.1538 67.0852L72.9575 70.0847Z" stroke="#413E60"/>
<path fill-rule="evenodd" clip-rule="evenodd" d="M75.657 69.3614C76.7223 73.3371 74.3629 77.4237 70.3872 78.489C66.4114 79.5543 62.3249 77.1949 61.2596 73.2192C61.1264 72.7222 61.4213 72.2114 61.9183 72.0782C62.4153 71.9451 62.9261 72.24 63.0592 72.7369C63.8582 75.7188 66.9232 77.4883 69.905 76.6893C72.8868 75.8904 74.6563 72.8254 73.8574 69.8436C73.7242 69.3466 74.0191 68.8358 74.5161 68.7026C75.0131 68.5695 75.5239 68.8644 75.657 69.3614Z" stroke="#413E60" stroke-linecap="round"/>
<path d="M80.3899 37.2754C82.6178 35.9892 85.4665 36.7525 86.7528 38.9804V38.9804C88.039 41.2082 87.2757 44.057 85.0479 45.3432L82.3586 46.8959C81.616 47.3246 80.6664 47.0702 80.2377 46.3275L77.1324 40.949C76.7036 40.2064 76.9581 39.2568 77.7007 38.8281L80.3899 37.2754Z" stroke="#413E60"/>
<path fill-rule="evenodd" clip-rule="evenodd" d="M78.993 34.8552C82.5576 32.7972 87.1156 34.0185 89.1736 37.5831C91.2316 41.1476 90.0103 45.7056 86.4457 47.7636C86.0002 48.0209 85.4304 47.8682 85.1732 47.4226C84.9159 46.9771 85.0686 46.4073 85.5141 46.1501C88.1876 44.6066 89.1036 41.1881 87.5601 38.5146C86.0166 35.8412 82.5981 34.9252 79.9246 36.4687C79.4791 36.726 78.9093 36.5733 78.6521 36.1278C78.3948 35.6822 78.5475 35.1124 78.993 34.8552Z" stroke="#413E60" stroke-linecap="round"/>
<path d="M84.6409 56.4027C86.9782 57.4772 88.002 60.243 86.9276 62.5804V62.5804C85.8531 64.9178 83.0873 65.9416 80.7499 64.8671L77.9284 63.5701C77.1493 63.212 76.808 62.29 77.1662 61.5109L79.7602 55.868C80.1183 55.0889 81.0403 54.7476 81.8194 55.1057L84.6409 56.4027Z" stroke="#413E60"/>
<path fill-rule="evenodd" clip-rule="evenodd" d="M85.8086 53.8635C89.5484 55.5826 91.1864 60.008 89.4673 63.7478C87.7482 67.4876 83.3228 69.1256 79.583 67.4065C79.1156 67.1916 78.9108 66.6384 79.1257 66.171C79.3406 65.7035 79.8938 65.4987 80.3612 65.7136C83.1661 67.003 86.4851 65.7744 87.7744 62.9696C89.0638 60.1647 87.8352 56.8457 85.0304 55.5564C84.5629 55.3415 84.3582 54.7883 84.573 54.3208C84.7879 53.8534 85.3411 53.6486 85.8086 53.8635Z" stroke="#413E60" stroke-linecap="round"/>
<path d="M36.4679 27.6615C35.8449 25.1656 33.3165 23.6473 30.8206 24.2702V24.2702C28.3246 24.8932 26.8063 27.4216 27.4293 29.9176L28.1814 32.9304C28.389 33.7624 29.2318 34.2685 30.0638 34.0608L36.0895 32.5568C36.9215 32.3491 37.4276 31.5063 37.2199 30.6743L36.4679 27.6615Z" stroke="#413E60"/>
<path fill-rule="evenodd" clip-rule="evenodd" d="M39.1799 26.9847C38.1831 22.9912 34.1376 20.5619 30.1442 21.5587C26.1507 22.5555 23.7214 26.6009 24.7182 30.5944C24.8428 31.0936 25.3485 31.3972 25.8476 31.2726C26.3468 31.148 26.6505 30.6424 26.5259 30.1432C25.7783 27.1481 27.6003 24.114 30.5954 23.3664C33.5905 22.6188 36.6246 24.4408 37.3721 27.4359C37.4967 27.9351 38.0024 28.2387 38.5016 28.1141C39.0008 27.9895 39.3045 27.4839 39.1799 26.9847Z" stroke="#413E60" stroke-linecap="round"/>
<path d="M26.6333 70.0846C25.9675 72.5695 27.4421 75.1236 29.9269 75.7894V75.7894C32.4118 76.4552 34.9659 74.9806 35.6317 72.4958L36.4354 69.4963C36.6574 68.668 36.1658 67.8166 35.3375 67.5947L29.3386 65.9873C28.5103 65.7653 27.6589 66.2569 27.437 67.0852L26.6333 70.0846Z" stroke="#413E60"/>
<path fill-rule="evenodd" clip-rule="evenodd" d="M23.9338 69.3613C22.8685 73.3371 25.2279 77.4237 29.2036 78.489C33.1794 79.5543 37.266 77.1949 38.3313 73.2191C38.4644 72.7221 38.1695 72.2113 37.6725 72.0782C37.1756 71.945 36.6647 72.2399 36.5316 72.7369C35.7326 75.7187 32.6677 77.4882 29.6859 76.6893C26.704 75.8903 24.9345 72.8254 25.7335 69.8435C25.8666 69.3466 25.5717 68.8357 25.0747 68.7026C24.5778 68.5694 24.0669 68.8643 23.9338 69.3613Z" stroke="#413E60" stroke-linecap="round"/>
<path d="M19.9714 36.4909C17.7435 35.2046 14.8948 35.968 13.6085 38.1958V38.1958C12.3223 40.4237 13.0856 43.2724 15.3135 44.5587L18.0027 46.1113C18.7453 46.5401 19.6949 46.2856 20.1237 45.543L23.229 40.1645C23.6577 39.4219 23.4033 38.4723 22.6606 38.0435L19.9714 36.4909Z" stroke="#413E60"/>
<path fill-rule="evenodd" clip-rule="evenodd" d="M21.3683 34.0706C17.8037 32.0126 13.2457 33.234 11.1877 36.7985C9.12972 40.3631 10.351 44.9211 13.9156 46.9791C14.3612 47.2363 14.9309 47.0837 15.1882 46.6381C15.4454 46.1925 15.2927 45.6228 14.8472 45.3655C12.1738 43.822 11.2578 40.4035 12.8013 37.7301C14.3448 35.0567 17.7633 34.1407 20.4367 35.6842C20.8823 35.9414 21.452 35.7888 21.7093 35.3432C21.9665 34.8976 21.8139 34.3279 21.3683 34.0706Z" stroke="#413E60" stroke-linecap="round"/>
<path d="M15.0107 56.1264C12.7169 57.2911 11.8015 60.0946 12.9662 62.3884V62.3884C14.1308 64.6822 16.9344 65.5976 19.2281 64.433L21.997 63.0271C22.7616 62.6389 23.0667 61.7044 22.6785 60.9398L19.8669 55.4021C19.4786 54.6375 18.5441 54.3324 17.7795 54.7206L15.0107 56.1264Z" stroke="#413E60"/>
<path fill-rule="evenodd" clip-rule="evenodd" d="M13.7448 53.6345C10.0748 55.4979 8.61019 59.9836 10.4736 63.6537C12.337 67.3237 16.8227 68.7883 20.4928 66.9249C20.9515 66.692 21.1346 66.1313 20.9017 65.6725C20.6687 65.2138 20.108 65.0307 19.6493 65.2636C16.8967 66.6612 13.5324 65.5627 12.1349 62.8102C10.7373 60.0577 11.8358 56.6934 14.5883 55.2958C15.0471 55.0629 15.2301 54.5022 14.9972 54.0434C14.7643 53.5847 14.2036 53.4016 13.7448 53.6345Z" stroke="#413E60" stroke-linecap="round"/>
<path d="M54.9043 72.2657C54.9043 74.8382 52.8189 76.9236 50.2464 76.9236V76.9236C47.6739 76.9236 45.5884 74.8382 45.5884 72.2657L45.5884 69.1604C45.5884 68.3029 46.2836 67.6077 47.1411 67.6077L53.3517 67.6077C54.2092 67.6077 54.9043 68.3029 54.9043 69.1604L54.9043 72.2657Z" stroke="#413E60"/>
<path fill-rule="evenodd" clip-rule="evenodd" d="M57.6992 72.2657C57.6992 76.3817 54.3625 79.7184 50.2465 79.7184C46.1305 79.7184 42.7938 76.3817 42.7938 72.2657C42.7938 71.7512 43.2109 71.3341 43.7254 71.3341C44.2399 71.3341 44.657 71.7512 44.657 72.2657C44.657 75.3527 47.1595 77.8552 50.2465 77.8552C53.3335 77.8552 55.836 75.3527 55.836 72.2657C55.836 71.7512 56.2531 71.3341 56.7676 71.3341C57.2821 71.3341 57.6992 71.7512 57.6992 72.2657Z" stroke="#413E60" stroke-linecap="round"/>
</svg>
