<svg width="31" height="22" viewBox="0 0 31 22" fill="none" xmlns="http://www.w3.org/2000/svg">
<path d="M28.441 21H2.2924C1.94964 21 1.62091 20.8503 1.37854 20.5839C1.13616 20.3174 1 19.9561 1 19.5793V2.11012C1 1.8157 1.10639 1.53334 1.29578 1.32515C1.48516 1.11696 1.74202 1 2.00984 1H28.7141C28.9888 1 29.2523 1.11998 29.4466 1.33354C29.6409 1.5471 29.75 1.83675 29.75 2.13877V19.561C29.75 19.75 29.7161 19.9371 29.6504 20.1117C29.5846 20.2863 29.4881 20.4449 29.3666 20.5785C29.245 20.7121 29.1007 20.8181 28.9419 20.8905C28.7831 20.9628 28.6129 21 28.441 21V21Z" stroke="#413E60" stroke-miterlimit="10" stroke-linecap="round" stroke-linejoin="round"/>
<path d="M1.44043 1.46858L8.05197 8.96567" stroke="#413E60" stroke-miterlimit="10" stroke-linecap="round"/>
<path d="M28.7688 1.46855L22.1572 8.96564" stroke="#413E60" stroke-miterlimit="10" stroke-linecap="round"/>
<path d="M19.9819 9.6928C19.9821 9.0789 19.7896 8.48248 19.4349 7.99804C19.0802 7.5136 18.5836 7.16883 18.0237 7.01837C17.4638 6.86791 16.8727 6.92036 16.3441 7.1674C15.8154 7.41445 15.3794 7.84196 15.1052 8.38221C14.8309 7.84196 14.395 7.41445 13.8663 7.1674C13.3376 6.92036 12.7466 6.86791 12.1867 7.01837C11.6268 7.16883 11.1302 7.5136 10.7755 7.99804C10.4208 8.48248 10.2283 9.0789 10.2285 9.6928C10.2285 10.3479 10.4445 10.9486 10.8033 11.4218L10.8024 11.4227L15.1052 15.8415L19.4075 11.4227L19.4067 11.4218C19.7792 10.9326 19.9823 10.3222 19.9819 9.6928Z" stroke="#413E60" stroke-miterlimit="10" stroke-linejoin="round"/>
</svg>
