<svg width="37" height="27" viewBox="0 0 37 27" fill="none" xmlns="http://www.w3.org/2000/svg">
<path d="M34.4064 25.6739H2.57336C2.15608 25.6739 1.75589 25.4917 1.46083 25.1673C1.16576 24.8429 1 24.403 1 23.9443V2.6775C1 2.31908 1.12952 1.97533 1.36008 1.72188C1.59063 1.46844 1.90332 1.32605 2.22938 1.32605H34.7389C35.0734 1.32605 35.3941 1.47211 35.6306 1.73209C35.8671 1.99208 36 2.3447 36 2.71237V23.922C36 24.1521 35.9588 24.3799 35.8787 24.5924C35.7986 24.805 35.6812 24.9981 35.5332 25.1608C35.3853 25.3234 35.2096 25.4525 35.0162 25.5405C34.8229 25.6286 34.6157 25.6739 34.4064 25.6739V25.6739Z" stroke="#FF740F" stroke-miterlimit="10" stroke-linecap="round" stroke-linejoin="round"/>
<path d="M1.53619 1.89636L9.58503 11.0232" stroke="#FF740F" stroke-miterlimit="10" stroke-linecap="round"/>
<path d="M34.8054 1.89636L26.7565 11.0232" stroke="#FF740F" stroke-miterlimit="10" stroke-linecap="round"/>
<path d="M24.1081 11.9084C24.1083 11.161 23.874 10.435 23.4422 9.8452C23.0104 9.25544 22.4058 8.83573 21.7242 8.65256C21.0426 8.46939 20.3231 8.53324 19.6795 8.83399C19.0359 9.13474 18.5051 9.65519 18.1713 10.3129C17.8374 9.65519 17.3066 9.13474 16.663 8.83399C16.0195 8.53324 15.2999 8.46939 14.6183 8.65256C13.9367 8.83573 13.3321 9.25544 12.9003 9.8452C12.4685 10.435 12.2342 11.161 12.2344 11.9084C12.2344 12.7058 12.4974 13.4371 12.9341 14.0133L12.9331 14.0144L18.1713 19.3937L23.4089 14.0144L23.4078 14.0133C23.8614 13.4177 24.1086 12.6746 24.1081 11.9084Z" stroke="#FF740F" stroke-miterlimit="10" stroke-linejoin="round"/>
</svg>