<svg width="18" height="14" viewBox="0 0 18 14" fill="none" xmlns="http://www.w3.org/2000/svg">
<path d="M16.2714 12.5652H1.71913C1.52837 12.5652 1.34543 12.4819 1.21054 12.3336C1.07566 12.1854 0.999878 11.9842 0.999878 11.7745V2.05259C0.999878 1.88874 1.05909 1.7316 1.16448 1.61574C1.26988 1.49987 1.41283 1.43478 1.56188 1.43478H16.4234C16.5763 1.43478 16.7229 1.50155 16.831 1.6204C16.9391 1.73926 16.9999 1.90045 16.9999 2.06853V11.7644C16.9999 11.8695 16.981 11.9737 16.9444 12.0708C16.9078 12.168 16.8542 12.2563 16.7865 12.3307C16.7189 12.405 16.6385 12.464 16.5502 12.5043C16.4618 12.5445 16.367 12.5652 16.2714 12.5652V12.5652Z" stroke="#413E60" stroke-miterlimit="10" stroke-linecap="round" stroke-linejoin="round"/>
<path d="M1.245 1.69556L4.92446 5.86785" stroke="#413E60" stroke-miterlimit="10" stroke-linecap="round"/>
<path d="M16.4538 1.69556L12.7743 5.86785" stroke="#413E60" stroke-miterlimit="10" stroke-linecap="round"/>
<path d="M11.5636 6.27252C11.5637 5.93087 11.4566 5.59895 11.2592 5.32935C11.0618 5.05975 10.7854 4.86788 10.4738 4.78414C10.1622 4.70041 9.83328 4.7296 9.53907 4.86708C9.24486 5.00457 9.00222 5.24249 8.8496 5.54315C8.69697 5.24249 8.45433 5.00457 8.16012 4.86708C7.86592 4.7296 7.53697 4.70041 7.22539 4.78414C6.91381 4.86788 6.63743 5.05975 6.44003 5.32935C6.24263 5.59895 6.1355 5.93087 6.13562 6.27252C6.13562 6.63707 6.25582 6.97138 6.45549 7.23475L6.455 7.23527L8.8496 9.6944L11.2439 7.23527L11.2435 7.23475C11.4508 6.96251 11.5638 6.62279 11.5636 6.27252Z" stroke="#413E60" stroke-miterlimit="10" stroke-linejoin="round"/>
</svg>
