<svg width="18" height="14" viewBox="0 0 18 14" fill="none" xmlns="http://www.w3.org/2000/svg">
<path d="M16.2714 12.5651H1.71913C1.52837 12.5651 1.34543 12.4818 1.21054 12.3335C1.07566 12.1853 0.999878 11.9842 0.999878 11.7745V2.0525C0.999878 1.88865 1.05909 1.73151 1.16448 1.61564C1.26988 1.49978 1.41283 1.43469 1.56188 1.43469H16.4234C16.5763 1.43469 16.7229 1.50146 16.831 1.62031C16.9391 1.73916 16.9999 1.90036 16.9999 2.06844V11.7643C16.9999 11.8695 16.981 11.9736 16.9444 12.0708C16.9078 12.1679 16.8542 12.2562 16.7865 12.3306C16.7189 12.4049 16.6385 12.4639 16.5502 12.5042C16.4618 12.5444 16.367 12.5651 16.2714 12.5651V12.5651Z" stroke="#A09FAF" stroke-miterlimit="10" stroke-linecap="round" stroke-linejoin="round"/>
<path d="M1.245 1.69543L4.92446 5.86773" stroke="#A09FAF" stroke-miterlimit="10" stroke-linecap="round"/>
<path d="M16.4538 1.69543L12.7743 5.86773" stroke="#A09FAF" stroke-miterlimit="10" stroke-linecap="round"/>
<path d="M11.5636 6.27243C11.5637 5.93078 11.4566 5.59886 11.2592 5.32926C11.0618 5.05965 10.7854 4.86779 10.4738 4.78405C10.1622 4.70032 9.83328 4.7295 9.53907 4.86699C9.24486 5.00448 9.00222 5.2424 8.8496 5.54306C8.69697 5.2424 8.45433 5.00448 8.16012 4.86699C7.86592 4.7295 7.53697 4.70032 7.22539 4.78405C6.91381 4.86779 6.63743 5.05965 6.44003 5.32926C6.24263 5.59886 6.1355 5.93078 6.13562 6.27243C6.13562 6.63698 6.25582 6.97128 6.45549 7.23466L6.455 7.23518L8.8496 9.6943L11.2439 7.23518L11.2435 7.23466C11.4508 6.96242 11.5638 6.6227 11.5636 6.27243Z" stroke="#A09FAF" stroke-miterlimit="10" stroke-linejoin="round"/>
</svg>
