<svg width="9" height="9" viewBox="0 0 9 9" fill="none" xmlns="http://www.w3.org/2000/svg">
<path d="M6.64577 7.84809H8.18952V6.19165C8.18952 6.07693 8.15118 5.96551 8.0806 5.87507C8.01003 5.78464 7.91126 5.72038 7.79998 5.6925L6.13118 5.27517L6.001 4.3623C6.26989 4.23941 6.49785 4.04189 6.65776 3.79322C6.81767 3.54455 6.90281 3.2552 6.90306 2.95955V2.5098C6.91012 2.14255 6.78961 1.78422 6.56206 1.49587C6.33452 1.20752 6.01402 1.007 5.6552 0.928489C5.38441 0.876995 5.10482 0.897942 4.84473 0.989209" stroke="#212121" stroke-width="0.823333" stroke-linecap="round" stroke-linejoin="round"/>
<path d="M5.24346 6.45512L3.81549 6.04705L3.68531 5.13418C3.93443 5.17365 4.18905 5.16082 4.43295 5.0965C4.67685 5.03218 4.90469 4.91778 5.10195 4.76059C4.72022 4.24127 4.53761 3.60216 4.58737 2.95955C4.58737 2.55012 4.42473 2.15747 4.13522 1.86796C3.84571 1.57845 3.45305 1.4158 3.04362 1.4158C2.63419 1.4158 2.24153 1.57845 1.95202 1.86796C1.66251 2.15747 1.49987 2.55012 1.49987 2.95955C1.54963 3.60216 1.36702 4.24127 0.985286 4.76059C1.18255 4.91778 1.41039 5.03218 1.65429 5.0965C1.89819 5.16082 2.1528 5.17365 2.40193 5.13418L2.27174 6.04705L0.843776 6.45512C0.736325 6.48585 0.641801 6.55073 0.574493 6.63995C0.507185 6.72917 0.470753 6.83787 0.470703 6.94963V7.84809H5.61654V6.94963C5.61649 6.83787 5.58005 6.72917 5.51275 6.63995C5.44544 6.55073 5.35091 6.48585 5.24346 6.45512V6.45512Z" stroke="#212121" stroke-width="0.823333" stroke-linecap="round" stroke-linejoin="round"/>
</svg>
