<svg width="100" height="100" viewBox="0 0 100 100" fill="none" xmlns="http://www.w3.org/2000/svg">
<rect x="22.8711" y="36.4894" width="53.9145" height="27.2418" stroke="#61656C"/>
<path d="M25.5586 27.9729C25.5586 25.4004 27.644 23.315 30.2165 23.315V23.315C32.789 23.315 34.8745 25.4004 34.8745 27.9729V31.0782C34.8745 31.9357 34.1793 32.6309 33.3218 32.6309H27.1112C26.2537 32.6309 25.5586 31.9357 25.5586 31.0782V27.9729Z" stroke="#413E60"/>
<path fill-rule="evenodd" clip-rule="evenodd" d="M22.7637 27.9729C22.7637 23.8569 26.1004 20.5202 30.2164 20.5202C34.3324 20.5202 37.669 23.8569 37.669 27.9729C37.669 28.4874 37.252 28.9045 36.7375 28.9045C36.223 28.9045 35.8059 28.4874 35.8059 27.9729C35.8059 24.8859 33.3034 22.3834 30.2164 22.3834C27.1294 22.3834 24.6268 24.8859 24.6268 27.9729C24.6268 28.4874 24.2098 28.9045 23.6953 28.9045C23.1808 28.9045 22.7637 28.4874 22.7637 27.9729Z" stroke="#413E60" stroke-linecap="round"/>
<path d="M44.7773 27.9729C44.7773 25.4004 46.8628 23.315 49.4353 23.315V23.315C52.0078 23.315 54.0932 25.4004 54.0932 27.9729V31.0782C54.0932 31.9357 53.3981 32.6309 52.5406 32.6309H46.33C45.4725 32.6309 44.7773 31.9357 44.7773 31.0782V27.9729Z" stroke="#413E60"/>
<path fill-rule="evenodd" clip-rule="evenodd" d="M41.9824 27.9729C41.9824 23.8569 45.3191 20.5202 49.4351 20.5202C53.5511 20.5202 56.8878 23.8569 56.8878 27.9729C56.8878 28.4874 56.4707 28.9045 55.9562 28.9045C55.4417 28.9045 55.0246 28.4874 55.0246 27.9729C55.0246 24.8859 52.5221 22.3834 49.4351 22.3834C46.3481 22.3834 43.8456 24.8859 43.8456 27.9729C43.8456 28.4874 43.4285 28.9045 42.914 28.9045C42.3995 28.9045 41.9824 28.4874 41.9824 27.9729Z" stroke="#413E60" stroke-linecap="round"/>
<path d="M63.998 27.9729C63.998 25.4004 66.0835 23.315 68.656 23.315V23.315C71.2285 23.315 73.3139 25.4004 73.3139 27.9729V31.0782C73.3139 31.9357 72.6188 32.6309 71.7613 32.6309H65.5507C64.6932 32.6309 63.998 31.9357 63.998 31.0782V27.9729Z" stroke="#413E60"/>
<path fill-rule="evenodd" clip-rule="evenodd" d="M61.2031 27.9729C61.2031 23.8569 64.5398 20.5202 68.6558 20.5202C72.7718 20.5202 76.1085 23.8569 76.1085 27.9729C76.1085 28.4874 75.6914 28.9045 75.1769 28.9045C74.6624 28.9045 74.2453 28.4874 74.2453 27.9729C74.2453 24.8859 71.7428 22.3834 68.6558 22.3834C65.5688 22.3834 63.0663 24.8859 63.0663 27.9729C63.0663 28.4874 62.6492 28.9045 62.1347 28.9045C61.6202 28.9045 61.2031 28.4874 61.2031 27.9729Z" stroke="#413E60" stroke-linecap="round"/>
<path d="M85.4739 37.2153C88.0464 37.2153 90.1318 39.3007 90.1318 41.8732V41.8732C90.1318 44.4457 88.0464 46.5311 85.4739 46.5311L82.3686 46.5311C81.5111 46.5311 80.816 45.836 80.816 44.9785L80.816 38.7679C80.816 37.9104 81.5111 37.2153 82.3686 37.2153L85.4739 37.2153Z" stroke="#413E60"/>
<path fill-rule="evenodd" clip-rule="evenodd" d="M85.4741 34.4205C89.5901 34.4205 92.9268 37.7572 92.9268 41.8732C92.9268 45.9892 89.5901 49.3258 85.4741 49.3258C84.9596 49.3258 84.5425 48.9088 84.5425 48.3943C84.5425 47.8798 84.9596 47.4627 85.4741 47.4627C88.5611 47.4627 91.0636 44.9602 91.0636 41.8732C91.0636 38.7862 88.5611 36.2836 85.4741 36.2836C84.9596 36.2836 84.5425 35.8666 84.5425 35.3521C84.5425 34.8376 84.9596 34.4205 85.4741 34.4205Z" stroke="#413E60" stroke-linecap="round"/>
<path d="M85.4739 56.4354C88.0464 56.4354 90.1318 58.5208 90.1318 61.0933V61.0933C90.1318 63.6658 88.0464 65.7512 85.4739 65.7512L82.3686 65.7512C81.5111 65.7512 80.816 65.0561 80.816 64.1986L80.816 57.988C80.816 57.1305 81.5111 56.4354 82.3686 56.4354L85.4739 56.4354Z" stroke="#413E60"/>
<path fill-rule="evenodd" clip-rule="evenodd" d="M85.4741 53.6406C89.5901 53.6406 92.9268 56.9772 92.9268 61.0933C92.9268 65.2093 89.5901 68.5459 85.4741 68.5459C84.9596 68.5459 84.5425 68.1289 84.5425 67.6144C84.5425 67.0999 84.9596 66.6828 85.4741 66.6828C88.5611 66.6828 91.0636 64.1803 91.0636 61.0933C91.0636 58.0062 88.5611 55.5037 85.4741 55.5037C84.9596 55.5037 84.5425 55.0867 84.5425 54.5722C84.5425 54.0576 84.9596 53.6406 85.4741 53.6406Z" stroke="#413E60" stroke-linecap="round"/>
<path d="M14.5261 65.7512C11.9536 65.7512 9.86816 63.6658 9.86816 61.0933V61.0933C9.86816 58.5208 11.9536 56.4354 14.5261 56.4354L17.6314 56.4354C18.4889 56.4354 19.184 57.1305 19.184 57.988L19.184 64.1986C19.184 65.0561 18.4889 65.7512 17.6314 65.7512L14.5261 65.7512Z" stroke="#413E60"/>
<path fill-rule="evenodd" clip-rule="evenodd" d="M14.5259 68.546C10.4099 68.546 7.07324 65.2093 7.07324 61.0933C7.07324 56.9773 10.4099 53.6406 14.5259 53.6406C15.0404 53.6406 15.4575 54.0577 15.4575 54.5722C15.4575 55.0867 15.0404 55.5038 14.5259 55.5038C11.4389 55.5038 8.93641 58.0063 8.93641 61.0933C8.93641 64.1803 11.4389 66.6828 14.5259 66.6828C15.0404 66.6828 15.4575 67.0999 15.4575 67.6144C15.4575 68.1289 15.0404 68.546 14.5259 68.546Z" stroke="#413E60" stroke-linecap="round"/>
<path d="M14.5261 46.5311C11.9536 46.5311 9.86816 44.4456 9.86816 41.8731V41.8731C9.86816 39.3006 11.9536 37.2152 14.5261 37.2152L17.6314 37.2152C18.4889 37.2152 19.184 37.9103 19.184 38.7678L19.184 44.9784C19.184 45.8359 18.4889 46.5311 17.6314 46.5311L14.5261 46.5311Z" stroke="#413E60"/>
<path fill-rule="evenodd" clip-rule="evenodd" d="M14.5259 49.3259C10.4099 49.3259 7.07324 45.9892 7.07324 41.8732C7.07324 37.7572 10.4099 34.4205 14.5259 34.4205C15.0404 34.4205 15.4575 34.8376 15.4575 35.3521C15.4575 35.8666 15.0404 36.2837 14.5259 36.2837C11.4389 36.2837 8.93641 38.7862 8.93641 41.8732C8.93641 44.9602 11.4389 47.4627 14.5259 47.4627C15.0404 47.4627 15.4575 47.8798 15.4575 48.3943C15.4575 48.9088 15.0404 49.3259 14.5259 49.3259Z" stroke="#413E60" stroke-linecap="round"/>
<path d="M73.3135 72.0271C73.3135 74.5996 71.228 76.685 68.6555 76.685V76.685C66.083 76.685 63.9976 74.5996 63.9976 72.0271L63.9976 68.9218C63.9976 68.0643 64.6928 67.3691 65.5503 67.3691L71.7608 67.3691C72.6183 67.3691 73.3135 68.0643 73.3135 68.9218L73.3135 72.0271Z" stroke="#413E60"/>
<path fill-rule="evenodd" clip-rule="evenodd" d="M76.1084 72.0271C76.1084 76.1431 72.7717 79.4798 68.6557 79.4798C64.5397 79.4798 61.203 76.1431 61.203 72.0271C61.203 71.5126 61.6201 71.0955 62.1346 71.0955C62.6491 71.0955 63.0662 71.5126 63.0662 72.0271C63.0662 75.1141 65.5687 77.6166 68.6557 77.6166C71.7427 77.6166 74.2452 75.1141 74.2452 72.0271C74.2452 71.5126 74.6623 71.0955 75.1768 71.0955C75.6913 71.0955 76.1084 71.5126 76.1084 72.0271Z" stroke="#413E60" stroke-linecap="round"/>
<path d="M54.0938 72.0271C54.0938 74.5996 52.0083 76.685 49.4358 76.685V76.685C46.8633 76.685 44.7779 74.5996 44.7779 72.0271L44.7779 68.9218C44.7779 68.0643 45.473 67.3691 46.3305 67.3691L52.5411 67.3691C53.3986 67.3691 54.0938 68.0643 54.0938 68.9218L54.0938 72.0271Z" stroke="#413E60"/>
<path fill-rule="evenodd" clip-rule="evenodd" d="M56.8887 72.0271C56.8887 76.1431 53.552 79.4798 49.436 79.4798C45.32 79.4798 41.9833 76.1431 41.9833 72.0271C41.9833 71.5126 42.4004 71.0955 42.9149 71.0955C43.4294 71.0955 43.8465 71.5126 43.8465 72.0271C43.8465 75.1141 46.349 77.6166 49.436 77.6166C52.523 77.6166 55.0255 75.1141 55.0255 72.0271C55.0255 71.5126 55.4426 71.0955 55.9571 71.0955C56.4716 71.0955 56.8887 71.5126 56.8887 72.0271Z" stroke="#413E60" stroke-linecap="round"/>
<path d="M34.874 72.0271C34.874 74.5996 32.7886 76.685 30.2161 76.685V76.685C27.6436 76.685 25.5582 74.5996 25.5582 72.0271L25.5582 68.9218C25.5582 68.0643 26.2533 67.3691 27.1108 67.3691L33.3214 67.3691C34.1789 67.3691 34.874 68.0643 34.874 68.9218L34.874 72.0271Z" stroke="#413E60"/>
<path fill-rule="evenodd" clip-rule="evenodd" d="M37.6689 72.0271C37.6689 76.1431 34.3323 79.4798 30.2163 79.4798C26.1003 79.4798 22.7636 76.1431 22.7636 72.0271C22.7636 71.5126 23.1807 71.0955 23.6952 71.0955C24.2097 71.0955 24.6267 71.5126 24.6267 72.0271C24.6267 75.1141 27.1293 77.6166 30.2163 77.6166C33.3033 77.6166 35.8058 75.1141 35.8058 72.0271C35.8058 71.5126 36.2229 71.0955 36.7374 71.0955C37.2519 71.0955 37.6689 71.5126 37.6689 72.0271Z" stroke="#413E60" stroke-linecap="round"/>
</svg>
