<svg width="100" height="100" viewBox="0 0 100 100" fill="none" xmlns="http://www.w3.org/2000/svg">
<rect x="30.8799" y="29.9817" width="39" height="39" rx="19.5" stroke="#61656C"/>
<path d="M77.8742 56.5422C80.1285 57.7814 80.9515 60.6135 79.7122 62.8679V62.8679C78.473 65.1222 75.6409 65.9451 73.3866 64.7059L70.6653 63.21C69.9139 62.797 69.6396 61.8529 70.0526 61.1015L73.0444 55.659C73.4575 54.9075 74.4015 54.6332 75.153 55.0463L77.8742 56.5422Z" stroke="#413E60"/>
<path fill-rule="evenodd" clip-rule="evenodd" d="M79.22 54.0931C82.827 56.0758 84.1436 60.6072 82.1609 64.2141C80.1781 67.8211 75.6467 69.1378 72.0398 67.155C71.5889 66.9072 71.4243 66.3408 71.6722 65.8899C71.92 65.439 72.4864 65.2744 72.9373 65.5223C75.6425 67.0093 79.0411 66.0218 80.5281 63.3166C82.0152 60.6114 81.0277 57.2129 78.3225 55.7258C77.8716 55.478 77.707 54.9115 77.9549 54.4607C78.2027 54.0098 78.7691 53.8452 79.22 54.0931Z" stroke="#413E60" stroke-linecap="round"/>
<path d="M63.8715 76.3448C64.6862 78.7849 63.3686 81.4235 60.9285 82.2382V82.2382C58.4885 83.053 55.8499 81.7354 55.0352 79.2953L54.0517 76.3499C53.7801 75.5365 54.2193 74.657 55.0327 74.3854L60.9235 72.4184C61.7369 72.1469 62.6164 72.5861 62.888 73.3994L63.8715 76.3448Z" stroke="#413E60"/>
<path fill-rule="evenodd" clip-rule="evenodd" d="M66.5225 75.4597C67.826 79.3638 65.7179 83.5855 61.8138 84.8891C57.9097 86.1927 53.688 84.0845 52.3844 80.1804C52.2214 79.6924 52.485 79.1647 52.973 79.0017C53.461 78.8388 53.9887 79.1023 54.1516 79.5903C55.1293 82.5184 58.2956 84.0995 61.2237 83.1218C64.1518 82.1441 65.7329 78.9779 64.7552 76.0498C64.5923 75.5618 64.8558 75.0341 65.3438 74.8711C65.8318 74.7082 66.3595 74.9717 66.5225 75.4597Z" stroke="#413E60" stroke-linecap="round"/>
<path d="M57.0204 20.8212C58.6223 18.8083 61.5527 18.4751 63.5656 20.077V20.077C65.5785 21.6789 65.9116 24.6092 64.3097 26.6221L62.3761 29.0519C61.8421 29.7229 60.8653 29.8339 60.1944 29.3L55.3348 25.4327C54.6639 24.8987 54.5528 23.9219 55.0868 23.251L57.0204 20.8212Z" stroke="#413E60"/>
<path fill-rule="evenodd" clip-rule="evenodd" d="M54.8338 19.0808C57.3969 15.8602 62.0854 15.3271 65.3061 17.8901C68.5267 20.4531 69.0598 25.1417 66.4968 28.3623C66.1764 28.7649 65.5903 28.8316 65.1877 28.5112C64.7852 28.1908 64.7185 27.6047 65.0389 27.2021C66.9612 24.7867 66.5613 21.2702 64.1459 19.348C61.7304 17.4257 58.214 17.8255 56.2917 20.241C55.9713 20.6436 55.3853 20.7102 54.9827 20.3898C54.5801 20.0695 54.5135 19.4834 54.8338 19.0808Z" stroke="#413E60" stroke-linecap="round"/>
<path d="M73.7687 34.8503C75.9977 33.5661 78.8458 34.3319 80.13 36.5609V36.5609C81.4143 38.79 80.6484 41.638 78.4194 42.9223L75.7287 44.4725C74.9857 44.9006 74.0364 44.6453 73.6083 43.9023L70.5078 38.521C70.0798 37.778 70.3351 36.8286 71.0781 36.4005L73.7687 34.8503Z" stroke="#413E60"/>
<path fill-rule="evenodd" clip-rule="evenodd" d="M72.3735 32.4284C75.9399 30.3736 80.4968 31.599 82.5516 35.1655C84.6064 38.7319 83.381 43.2888 79.8146 45.3436C79.3688 45.6004 78.7992 45.4472 78.5423 45.0014C78.2855 44.5556 78.4386 43.986 78.8844 43.7292C81.5592 42.1881 82.4783 38.7704 80.9372 36.0956C79.3961 33.4208 75.9784 32.5017 73.3036 34.0428C72.8578 34.2997 72.2882 34.1465 72.0314 33.7007C71.7745 33.2549 71.9277 32.6853 72.3735 32.4284Z" stroke="#413E60" stroke-linecap="round"/>
<path d="M44.4854 20.7096C43.6062 18.292 40.9337 17.0448 38.5161 17.924V17.924C36.0984 18.8031 34.8513 21.4757 35.7304 23.8933L36.7916 26.8116C37.0847 27.6175 37.9755 28.0332 38.7814 27.7402L44.618 25.6177C45.4239 25.3247 45.8396 24.4338 45.5466 23.628L44.4854 20.7096Z" stroke="#413E60"/>
<path fill-rule="evenodd" clip-rule="evenodd" d="M47.1123 19.7545C45.7057 15.8863 41.4296 13.8908 37.5614 15.2975C33.6933 16.7041 31.6978 20.9802 33.1044 24.8484C33.2802 25.3319 33.8147 25.5813 34.2982 25.4055C34.7818 25.2297 35.0312 24.6952 34.8554 24.2116C33.8004 21.3105 35.297 18.1034 38.1982 17.0485C41.0993 15.9935 44.3064 17.4901 45.3614 20.3913C45.5372 20.8748 46.0717 21.1242 46.5552 20.9484C47.0387 20.7726 47.2882 20.2381 47.1123 19.7545Z" stroke="#413E60" stroke-linecap="round"/>
<path d="M31.6327 72.5108C30.2925 74.7066 30.9861 77.5731 33.1819 78.9134V78.9134C35.3778 80.2536 38.2443 79.56 39.5845 77.3641L41.2023 74.7136C41.649 73.9816 41.4178 73.0261 40.6858 72.5794L35.3847 69.3438C34.6527 68.8971 33.6972 69.1283 33.2505 69.8602L31.6327 72.5108Z" stroke="#413E60"/>
<path fill-rule="evenodd" clip-rule="evenodd" d="M29.2469 71.0549C27.1026 74.5682 28.2124 79.1546 31.7257 81.2989C35.239 83.4433 39.8254 82.3335 41.9697 78.8202C42.2378 78.381 42.0991 77.8077 41.6599 77.5397C41.2207 77.2716 40.6474 77.4103 40.3794 77.8495C38.7711 80.4845 35.3313 81.3168 32.6963 79.7086C30.0613 78.1003 29.229 74.6605 30.8373 72.0255C31.1053 71.5864 30.9666 71.0131 30.5274 70.745C30.0883 70.477 29.515 70.6157 29.2469 71.0549Z" stroke="#413E60" stroke-linecap="round"/>
<path d="M26.5104 33.1127C24.2826 31.8264 21.4338 32.5897 20.1476 34.8176V34.8176C18.8613 37.0454 19.6247 39.8942 21.8525 41.1804L24.5418 42.7331C25.2844 43.1618 26.234 42.9074 26.6627 42.1648L29.768 36.7863C30.1968 36.0436 29.9423 35.0941 29.1997 34.6653L26.5104 33.1127Z" stroke="#413E60"/>
<path fill-rule="evenodd" clip-rule="evenodd" d="M27.9073 30.6924C24.3428 28.6344 19.7848 29.8557 17.7268 33.4203C15.6688 36.9848 16.8901 41.5428 20.4547 43.6008C20.9002 43.8581 21.47 43.7054 21.7272 43.2599C21.9845 42.8143 21.8318 42.2445 21.3862 41.9873C18.7128 40.4438 17.7968 37.0253 19.3403 34.3519C20.8838 31.6784 24.3023 30.7625 26.9758 32.306C27.4213 32.5632 27.9911 32.4105 28.2483 31.965C28.5056 31.5194 28.3529 30.9497 27.9073 30.6924Z" stroke="#413E60" stroke-linecap="round"/>
<path d="M21.6873 53.4178C19.2782 54.3199 18.0565 57.0043 18.9587 59.4134V59.4134C19.8608 61.8225 22.5451 63.0442 24.9542 62.142L27.8623 61.0531C28.6654 60.7524 29.0726 59.8576 28.7719 59.0545L26.5939 53.2384C26.2932 52.4353 25.3984 52.0281 24.5954 52.3288L21.6873 53.4178Z" stroke="#413E60"/>
<path fill-rule="evenodd" clip-rule="evenodd" d="M20.7069 50.8005C16.8523 52.2439 14.8977 56.5388 16.3411 60.3935C17.7845 64.2481 22.0794 66.2027 25.934 64.7593C26.4158 64.5789 26.6602 64.042 26.4798 63.5602C26.2993 63.0784 25.7625 62.834 25.2806 63.0145C22.3897 64.097 19.1685 62.631 18.0859 59.7401C17.0034 56.8491 18.4694 53.6279 21.3603 52.5454C21.8421 52.3649 22.0865 51.8281 21.9061 51.3462C21.7256 50.8644 21.1888 50.6201 20.7069 50.8005Z" stroke="#413E60" stroke-linecap="round"/>
</svg>
