<svg width="12" height="12" viewBox="0 0 12 12" fill="none" xmlns="http://www.w3.org/2000/svg">
<path fill-rule="evenodd" clip-rule="evenodd" d="M10.8353 2.20706C11.1863 1.85606 11.1938 1.29451 10.8521 0.952801C10.5104 0.611095 9.94883 0.618629 9.59783 0.969629L5.90227 4.66518L2.20662 0.969551C1.85562 0.618551 1.29407 0.61102 0.952359 0.952731C0.610647 1.29444 0.618178 1.85599 0.969178 2.20699L4.66482 5.90263L0.969411 9.59803C0.618411 9.94903 0.610876 10.5106 0.952582 10.8523C1.29429 11.194 1.85584 11.1865 2.20684 10.8355L5.90225 7.14006L9.5976 10.8354C9.9486 11.1864 10.5102 11.1939 10.8519 10.8522C11.1936 10.5105 11.186 9.94895 10.835 9.59795L7.13969 5.90261L10.8353 2.20706Z" fill="#61656C"/>
</svg>
